<svg viewBox="0 0 200 240" fill="none" xmlns="http://www.w3.org/2000/svg">
  <!-- Outer Gold/Yellow Shield with Border -->
  <path d="M12 18 H188 L180 170 C180 206 100 234 100 234 C100 234 20 206 20 170 Z" fill="#FFCC00" stroke="#E6B800" stroke-width="2"/>
  
  <!-- Top Ear Tips of the Shield -->
  <polygon points="12,18 2,6 26,18" fill="#FFCC00"/>
  <polygon points="188,18 198,6 174,18" fill="#FFCC00"/>

  <!-- Top White Ribbon Box for JAYA RAYA -->
  <path d="M22 24 H178 V64 H22 Z" fill="#FFFFFF"/>
  <text x="100" y="52" text-anchor="middle" fill="#E60000" font-size="21" font-weight="900" font-family="'Times New Roman', serif" letter-spacing="3.5">JAYA RAYA</text>

  <!-- Blue Field with Gold Stepped Arch Gate -->
  <!-- Gold Gate Outer Border -->
  <path d="M26 66 H174 V166 C174 198 100 222 100 222 C100 222 26 198 26 166 Z" fill="#FFCC00"/>
  
  <!-- Inner Blue Shield with Stepped/Curved Arch Top -->
  <path d="M34 94 H52 V78 H80 V68 C80 68 100 58 100 58 C100 58 120 68 120 68 V78 H148 V94 H166 V162 C166 190 100 214 100 214 C100 214 34 190 34 162 Z" fill="#0055A5"/>

  <!-- Monumen Nasional (Monas) -->
  <!-- Monas Base/Cawan -->
  <polygon points="74,148 126,148 120,140 80,140" fill="#FFFFFF"/>
  <rect x="80" y="148" width="40" height="4" fill="#E2E8F0"/>
  <rect x="74" y="152" width="52" height="6" fill="#CBD5E1"/>
  
  <!-- Monas Obelisk Body -->
  <polygon points="95,140 105,140 103,72 97,72" fill="#FFFFFF"/>
  <rect x="94" y="70" width="12" height="3" fill="#FFFFFF"/>
  
  <!-- Cawan Api / Pelataran Puncak -->
  <polygon points="92,70 108,70 106,66 94,66" fill="#FFFFFF"/>
  
  <!-- Api Kemerdekaan (Red Flame) -->
  <path d="M100 52 C95 58 96 62 97 66 H103 C104 62 105 58 100 52 Z" fill="#E60000"/>
  <path d="M100 55 C98 59 98 62 99 66 H101 C102 62 102 59 100 55 Z" fill="#FFCC00"/>

  <!-- Padi (Kuning Emas di Kiri) -->
  <g fill="#FFCC00" stroke="#B8860B" stroke-width="0.8">
    <!-- Tangkai melengkung -->
    <path d="M96 182 C70 180 44 150 44 110" stroke="#FFCC00" stroke-width="2.5" fill="none"/>
    <!-- Butir-butir padi -->
    <ellipse cx="44" cy="112" rx="4" ry="7" transform="rotate(-20 44 112)"/>
    <ellipse cx="47" cy="122" rx="4" ry="7" transform="rotate(-10 47 122)"/>
    <ellipse cx="52" cy="132" rx="4.5" ry="7.5" transform="rotate(5 52 132)"/>
    <ellipse cx="58" cy="142" rx="4.5" ry="7.5" transform="rotate(20 58 142)"/>
    <ellipse cx="66" cy="152" rx="5" ry="8" transform="rotate(35 66 152)"/>
    <ellipse cx="76" cy="162" rx="5" ry="8" transform="rotate(50 76 162)"/>
    <ellipse cx="86" cy="172" rx="5" ry="8" transform="rotate(65 86 172)"/>
    <!-- Butir dalam -->
    <ellipse cx="53" cy="116" rx="4" ry="7" transform="rotate(15 53 116)"/>
    <ellipse cx="58" cy="126" rx="4" ry="7" transform="rotate(30 58 126)"/>
    <ellipse cx="65" cy="136" rx="4.5" ry="7.5" transform="rotate(45 65 136)"/>
    <ellipse cx="74" cy="146" rx="4.5" ry="7.5" transform="rotate(60 74 146)"/>
  </g>

  <!-- Kapas (Hijau & Putih di Kanan) -->
  <g>
    <!-- Tangkai kapas hijau -->
    <path d="M104 182 C130 180 156 150 156 110" stroke="#008000" stroke-width="2.5" fill="none"/>
    <!-- Daun kelopak hijau & kuntum kapas putih -->
    <circle cx="156" cy="112" r="5" fill="#FFFFFF" stroke="#CBD5E1" stroke-width="0.8"/>
    <path d="M152 115 L156 110 L160 115 Z" fill="#008000"/>
    
    <circle cx="153" cy="123" r="5.5" fill="#FFFFFF" stroke="#CBD5E1" stroke-width="0.8"/>
    <path d="M149 126 L153 121 L157 126 Z" fill="#008000"/>
    
    <circle cx="147" cy="135" r="6" fill="#FFFFFF" stroke="#CBD5E1" stroke-width="0.8"/>
    <path d="M143 138 L147 133 L151 138 Z" fill="#008000"/>
    
    <circle cx="140" cy="147" r="6.5" fill="#FFFFFF" stroke="#CBD5E1" stroke-width="0.8"/>
    <path d="M136 150 L140 145 L144 150 Z" fill="#008000"/>
    
    <circle cx="130" cy="159" r="6.5" fill="#FFFFFF" stroke="#CBD5E1" stroke-width="0.8"/>
    <path d="M126 162 L130 157 L134 162 Z" fill="#008000"/>
    
    <circle cx="118" cy="170" r="6" fill="#FFFFFF" stroke="#CBD5E1" stroke-width="0.8"/>
    <path d="M114 173 L118 168 L122 173 Z" fill="#008000"/>
  </g>

  <!-- Pita Emas Pengikat Padi & Kapas di Bawah (Pita Simpul / Bow) -->
  <g fill="#FFCC00" stroke="#B8860B" stroke-width="1.2">
    <circle cx="100" cy="178" r="6"/>
    <path d="M95 178 C86 172 82 186 94 184 Z"/>
    <path d="M105 178 C114 172 118 186 106 184 Z"/>
    <path d="M96 183 L90 196 L98 193 Z"/>
    <path d="M104 183 L110 196 L102 193 Z"/>
  </g>

  <!-- Gelombang Air Laut Putih di Bawah -->
  <g stroke="#FFFFFF" stroke-width="3" stroke-linecap="round" fill="none">
    <path d="M72 200 Q86 194 100 200 T128 200"/>
    <path d="M80 208 Q90 203 100 208 T120 208"/>
  </g>
</svg>
